# xmcd
#
# Track frame offsets:
# 150
# 11958
# 23037
# 36941
# 46173
# 64412
# 74991
# 87502
# 96479
# 108065
# 124523
#
# Disc length: 1786 seconds
#
#
# Revision: 0
# Processed by: cddbd v1.5.1PL2 Copyright (c) Steve Scherf et al.
# Submitted via: FreeRIP 2.944 
#
DISCID=9b06f80b
DTITLE=Jimmy Reed - Now Appearing
DYEAR=2000
DGENRE=Blues
TTITLE0=Close Together
TTITLE1=Got Me Chasing You
TTITLE2=Wanta Be With You
TTITLE3=Jimmy's Rock
TTITLE4=Tell the World I Do
TTITLE5=You Know You're Looking Good
TTITLE6=I've Got the Blues
TTITLE7=Laughing at the Blues
TTITLE8=Down the Road
TTITLE9=Ain't Gonna Cry No More
TTITLE10=You're My Baby
EXTD=
EXTT0=
EXTT1=
EXTT2=
EXTT3=
EXTT4=
EXTT5=
EXTT6=
EXTT7=
EXTT8=
EXTT9=
EXTT10=
PLAYORDER=
